<?xml version="1.0" encoding="UTF-8"?>
<svg xmlns="http://www.w3.org/2000/svg" xmlns:xlink="http://www.w3.org/1999/xlink" width="30pt" height="30.000001pt" viewBox="0 0 30 30.000001" version="1.2">
<defs>
<clipPath id="clip1">
  <path d="M 2.335938 1.851562 L 23 1.851562 L 23 22 L 2.335938 22 Z M 2.335938 1.851562 "/>
</clipPath>
<clipPath id="clip2">
  <path d="M 8 8 L 27.738281 8 L 27.738281 27.253906 L 8 27.253906 Z M 8 8 "/>
</clipPath>
</defs>
<g id="surface1">
<g clip-path="url(#clip1)" clip-rule="nonzero">
<path style=" stroke:none;fill-rule:nonzero;fill:rgb(100%,100%,100%);fill-opacity:1;" d="M 22.976562 14.550781 L 22.976562 5.027344 C 22.976562 3.273438 21.550781 1.851562 19.800781 1.851562 L 5.511719 1.851562 C 3.757812 1.851562 2.335938 3.273438 2.335938 5.027344 L 2.335938 20.902344 C 2.335938 21.210938 2.511719 21.492188 2.792969 21.621094 C 2.898438 21.671875 3.015625 21.695312 3.128906 21.695312 C 3.3125 21.695312 3.492188 21.636719 3.636719 21.511719 L 8.179688 17.726562 L 19.800781 17.726562 C 21.550781 17.726562 22.976562 16.304688 22.976562 14.550781 Z M 22.976562 14.550781 "/>
</g>
<g clip-path="url(#clip2)" clip-rule="nonzero">
<path style=" stroke:none;fill-rule:nonzero;fill:rgb(100%,100%,100%);fill-opacity:1;" d="M 25.355469 8.203125 L 24.5625 8.203125 L 24.5625 14.550781 C 24.5625 17.179688 22.425781 19.316406 19.800781 19.316406 L 8.753906 19.316406 L 8.683594 19.371094 L 8.683594 21.695312 C 8.683594 23.011719 9.753906 24.078125 11.066406 24.078125 L 22.695312 24.078125 L 26.445312 27.082031 C 26.589844 27.195312 26.769531 27.253906 26.945312 27.253906 C 27.058594 27.253906 27.175781 27.226562 27.289062 27.175781 C 27.5625 27.042969 27.738281 26.765625 27.738281 26.460938 L 27.738281 10.582031 C 27.738281 9.269531 26.667969 8.203125 25.355469 8.203125 Z M 25.355469 8.203125 "/>
</g>
</g>
</svg>
