<?xml version="1.0" encoding="UTF-8"?>
<svg xmlns="http://www.w3.org/2000/svg" xmlns:xlink="http://www.w3.org/1999/xlink" width="30pt" height="30.000001pt" viewBox="0 0 30 30.000001" version="1.2">
<defs>
<clipPath id="clip1">
  <path d="M 1.210938 0.726562 L 28.789062 0.726562 L 28.789062 28.304688 L 1.210938 28.304688 Z M 1.210938 0.726562 "/>
</clipPath>
</defs>
<g id="surface1">
<g clip-path="url(#clip1)" clip-rule="nonzero">
<path style=" stroke:none;fill-rule:nonzero;fill:rgb(0.389099%,47.059631%,83.918762%);fill-opacity:1;" d="M 15 0.726562 C 7.394531 0.726562 1.210938 6.914062 1.210938 14.515625 C 1.210938 17.167969 1.953125 19.714844 3.359375 21.90625 L 1.273438 27.125 C 1.144531 27.445312 1.21875 27.808594 1.464844 28.054688 C 1.625 28.21875 1.847656 28.304688 2.070312 28.304688 C 2.179688 28.304688 2.285156 28.285156 2.390625 28.246094 L 7.609375 26.15625 C 9.804688 27.5625 12.347656 28.304688 15 28.304688 C 22.605469 28.304688 28.789062 22.121094 28.789062 14.515625 C 28.789062 6.914062 22.605469 0.726562 15 0.726562 Z M 15 0.726562 "/>
</g>
</g>
</svg>
