<?xml version="1.0" encoding="UTF-8"?>
<svg xmlns="http://www.w3.org/2000/svg" xmlns:xlink="http://www.w3.org/1999/xlink" width="30pt" height="30.000001pt" viewBox="0 0 30 30.000001" version="1.2">
<defs>
<clipPath id="clip1">
  <path d="M 1.367188 1.375 L 28.945312 1.375 L 28.945312 27 L 1.367188 27 Z M 1.367188 1.375 "/>
</clipPath>
</defs>
<g id="surface1">
<g clip-path="url(#clip1)" clip-rule="nonzero">
<path style=" stroke:none;fill-rule:nonzero;fill:rgb(47.839355%,70.979309%,89.7995%);fill-opacity:1;" d="M 15.320312 1.378906 C 7.621094 1.378906 1.382812 6.566406 1.382812 12.96875 C 1.382812 17.632812 4.691406 21.652344 9.46875 23.492188 C 9.113281 24.613281 8.382812 25.753906 6.917969 26.34375 C 4.398438 27.363281 9.753906 27.121094 13.765625 24.488281 C 14.273438 24.535156 14.792969 24.5625 15.320312 24.5625 C 23.015625 24.5625 29.257812 19.371094 29.257812 12.96875 C 29.257812 6.566406 23.015625 1.378906 15.320312 1.378906 "/>
</g>
<path style=" stroke:none;fill-rule:nonzero;fill:rgb(100%,100%,100%);fill-opacity:1;" d="M 8.148438 11.429688 C 5.78125 11.429688 5.777344 14.984375 8.148438 14.984375 C 10.515625 14.984375 10.519531 11.429688 8.148438 11.429688 "/>
<path style=" stroke:none;fill-rule:nonzero;fill:rgb(100%,100%,100%);fill-opacity:1;" d="M 15.320312 11.429688 C 12.953125 11.429688 12.949219 14.984375 15.320312 14.984375 C 17.6875 14.984375 17.691406 11.429688 15.320312 11.429688 "/>
<path style=" stroke:none;fill-rule:nonzero;fill:rgb(100%,100%,100%);fill-opacity:1;" d="M 22.488281 11.429688 C 20.121094 11.429688 20.117188 14.984375 22.488281 14.984375 C 24.855469 14.984375 24.859375 11.429688 22.488281 11.429688 "/>
</g>
</svg>
