<?xml version="1.0" encoding="UTF-8"?>
<svg xmlns="http://www.w3.org/2000/svg" xmlns:xlink="http://www.w3.org/1999/xlink" width="30pt" height="30.000001pt" viewBox="0 0 30 30.000001" version="1.2">
<defs>
<clipPath id="clip1">
  <path d="M 0.972656 0.488281 L 29.28125 0.488281 L 29.28125 28.796875 L 0.972656 28.796875 Z M 0.972656 0.488281 "/>
</clipPath>
</defs>
<g id="surface1">
<g clip-path="url(#clip1)" clip-rule="nonzero">
<path style=" stroke:none;fill-rule:nonzero;fill:rgb(32.939148%,32.939148%,32.939148%);fill-opacity:1;" d="M 23.851562 19.324219 L 20.136719 23.042969 L 15.671875 18.578125 L 11.207031 23.042969 L 7.492188 19.324219 L 11.953125 14.859375 L 7.492188 10.398438 L 11.207031 6.679688 L 15.671875 11.144531 L 20.136719 6.679688 L 23.851562 10.398438 L 19.390625 14.859375 Z M 15.121094 0.488281 C 7.304688 0.488281 0.96875 6.824219 0.96875 14.640625 C 0.96875 22.457031 7.304688 28.792969 15.121094 28.792969 C 22.9375 28.792969 29.273438 22.457031 29.273438 14.640625 C 29.273438 6.824219 22.9375 0.488281 15.121094 0.488281 "/>
</g>
</g>
</svg>
