<?xml version="1.0" encoding="UTF-8"?>
<svg xmlns="http://www.w3.org/2000/svg" xmlns:xlink="http://www.w3.org/1999/xlink" width="30pt" height="30.000001pt" viewBox="0 0 30 30.000001" version="1.2">
<defs>
<clipPath id="clip1">
  <path d="M 3.152344 2.667969 L 27.101562 2.667969 L 27.101562 26.617188 L 3.152344 26.617188 Z M 3.152344 2.667969 "/>
</clipPath>
</defs>
<g id="surface1">
<g clip-path="url(#clip1)" clip-rule="nonzero">
<path style=" stroke:none;fill-rule:nonzero;fill:rgb(0%,29.019165%,67.83905%);fill-opacity:1;" d="M 27.097656 14.644531 C 27.097656 21.253906 21.738281 26.613281 15.128906 26.613281 C 8.515625 26.613281 3.15625 21.253906 3.15625 14.644531 C 3.15625 8.03125 8.515625 2.671875 15.128906 2.671875 C 21.738281 2.671875 27.097656 8.03125 27.097656 14.644531 "/>
<path style="fill:none;stroke-width:8.148;stroke-linecap:butt;stroke-linejoin:miter;stroke:rgb(13.729858%,12.159729%,12.548828%);stroke-opacity:1;stroke-miterlimit:10;" d="M 16300.565259 8151.098485 C 16300.565259 3652.036551 12652.389743 3.861034 8153.327809 3.861034 C 3651.606855 3.861034 3.431338 3652.036551 3.431338 8151.098485 C 3.431338 12652.819439 3651.606855 16300.994956 8153.327809 16300.994956 C 12652.389743 16300.994956 16300.565259 12652.819439 16300.565259 8151.098485 Z M 16300.565259 8151.098485 " transform="matrix(0.00146906,0,0,-0.00146906,3.151209,26.618953)"/>
</g>
<path style=" stroke:none;fill-rule:nonzero;fill:rgb(100%,100%,100%);fill-opacity:1;" d="M 21.792969 17.507812 L 21.484375 18.835938 L 21.25 18.835938 C 21.25 18.835938 21.25 18.835938 21.246094 18.835938 L 21.011719 18.835938 L 20.707031 17.507812 L 21.792969 17.507812 "/>
<path style=" stroke:none;fill-rule:nonzero;fill:rgb(100%,100%,100%);fill-opacity:1;" d="M 21.828125 11.945312 L 21.828125 17.210938 L 20.667969 17.210938 L 20.667969 11.945312 L 21.828125 11.945312 "/>
<path style=" stroke:none;fill-rule:nonzero;fill:rgb(100%,100%,100%);fill-opacity:1;" d="M 21.832031 10.695312 L 21.828125 11.648438 L 20.667969 11.648438 L 20.667969 10.695312 L 21.832031 10.695312 "/>
<path style=" stroke:none;fill-rule:nonzero;fill:rgb(100%,100%,100%);fill-opacity:1;" d="M 21.585938 10.15625 L 21.585938 10.398438 L 20.910156 10.398438 L 20.910156 10.160156 C 20.910156 9.976562 21.054688 9.824219 21.234375 9.816406 C 21.332031 9.8125 21.421875 9.847656 21.488281 9.914062 C 21.550781 9.980469 21.585938 10.066406 21.585938 10.15625 "/>
<path style=" stroke:none;fill-rule:nonzero;fill:rgb(100%,100%,100%);fill-opacity:1;" d="M 17.898438 8.167969 L 19.449219 9.808594 L 17.898438 9.808594 Z M 17.898438 8.167969 "/>
<path style=" stroke:none;fill-rule:nonzero;fill:rgb(100%,100%,100%);fill-opacity:1;" d="M 13.265625 16.925781 C 13.265625 16.847656 13.199219 16.78125 13.121094 16.78125 L 10.980469 16.78125 C 10.898438 16.78125 10.832031 16.847656 10.832031 16.925781 C 10.832031 17.007812 10.898438 17.074219 10.980469 17.074219 L 13.121094 17.074219 C 13.199219 17.074219 13.265625 17.007812 13.265625 16.925781 Z M 13.265625 15.5 C 13.265625 15.417969 13.199219 15.351562 13.121094 15.351562 L 10.980469 15.351562 C 10.898438 15.351562 10.832031 15.417969 10.832031 15.5 C 10.832031 15.578125 10.898438 15.644531 10.980469 15.644531 L 13.121094 15.644531 C 13.199219 15.644531 13.265625 15.578125 13.265625 15.5 Z M 13.796875 18.355469 C 13.796875 18.273438 13.730469 18.210938 13.648438 18.210938 L 10.980469 18.210938 C 10.898438 18.210938 10.832031 18.273438 10.832031 18.355469 C 10.832031 18.4375 10.898438 18.503906 10.980469 18.503906 L 13.648438 18.503906 C 13.730469 18.503906 13.796875 18.4375 13.796875 18.355469 Z M 13.941406 12.640625 C 13.941406 12.558594 13.875 12.492188 13.796875 12.492188 L 10.980469 12.492188 C 10.898438 12.492188 10.832031 12.558594 10.832031 12.640625 C 10.832031 12.722656 10.898438 12.789062 10.980469 12.789062 L 13.796875 12.789062 C 13.875 12.789062 13.941406 12.722656 13.941406 12.640625 Z M 15.289062 14.070312 C 15.289062 13.988281 15.222656 13.921875 15.140625 13.921875 L 10.980469 13.921875 C 10.898438 13.921875 10.832031 13.988281 10.832031 14.070312 C 10.832031 14.152344 10.898438 14.21875 10.980469 14.21875 L 15.140625 14.21875 C 15.222656 14.21875 15.289062 14.152344 15.289062 14.070312 Z M 15.570312 9.785156 C 15.570312 9.703125 15.503906 9.636719 15.421875 9.636719 L 10.980469 9.636719 C 10.898438 9.636719 10.832031 9.703125 10.832031 9.785156 C 10.832031 9.863281 10.898438 9.929688 10.980469 9.929688 L 15.421875 9.929688 C 15.503906 9.929688 15.570312 9.863281 15.570312 9.785156 Z M 15.628906 11.210938 C 15.628906 11.128906 15.566406 11.066406 15.484375 11.066406 L 10.980469 11.066406 C 10.898438 11.066406 10.832031 11.128906 10.832031 11.210938 C 10.832031 11.292969 10.898438 11.359375 10.980469 11.359375 L 15.484375 11.359375 C 15.566406 11.359375 15.628906 11.292969 15.628906 11.210938 Z M 18.179688 12.640625 C 18.179688 12.558594 18.113281 12.492188 18.03125 12.492188 L 14.558594 12.492188 C 14.476562 12.492188 14.410156 12.558594 14.410156 12.640625 C 14.410156 12.722656 14.476562 12.789062 14.558594 12.789062 L 18.03125 12.789062 C 18.113281 12.789062 18.179688 12.722656 18.179688 12.640625 Z M 18.179688 11.210938 C 18.179688 11.128906 18.113281 11.066406 18.03125 11.066406 L 16.484375 11.066406 C 16.402344 11.066406 16.335938 11.128906 16.335938 11.210938 C 16.335938 11.292969 16.402344 11.359375 16.484375 11.359375 L 18.03125 11.359375 C 18.113281 11.359375 18.179688 11.292969 18.179688 11.210938 Z M 18.1875 18.355469 C 18.1875 18.273438 18.121094 18.210938 18.039062 18.210938 L 14.730469 18.210938 C 14.648438 18.210938 14.582031 18.273438 14.582031 18.355469 C 14.582031 18.4375 14.648438 18.503906 14.730469 18.503906 L 18.039062 18.503906 C 18.121094 18.503906 18.1875 18.4375 18.1875 18.355469 Z M 18.1875 16.925781 C 18.1875 16.847656 18.121094 16.78125 18.039062 16.78125 L 13.941406 16.78125 C 13.859375 16.78125 13.792969 16.847656 13.792969 16.925781 C 13.792969 17.007812 13.859375 17.074219 13.941406 17.074219 L 18.039062 17.074219 C 18.121094 17.074219 18.1875 17.007812 18.1875 16.925781 Z M 18.1875 15.5 C 18.1875 15.417969 18.121094 15.351562 18.039062 15.351562 L 14.277344 15.351562 C 14.195312 15.351562 14.128906 15.417969 14.128906 15.5 C 14.128906 15.578125 14.195312 15.644531 14.277344 15.644531 L 18.039062 15.644531 C 18.121094 15.644531 18.1875 15.578125 18.1875 15.5 Z M 18.1875 14.070312 C 18.1875 13.988281 18.121094 13.921875 18.039062 13.921875 L 16.074219 13.921875 C 15.992188 13.921875 15.925781 13.988281 15.925781 14.070312 C 15.925781 14.152344 15.992188 14.21875 16.074219 14.21875 L 18.039062 14.21875 C 18.121094 14.21875 18.1875 14.152344 18.1875 14.070312 Z M 19.449219 10.101562 L 19.449219 19.972656 L 9.570312 19.972656 L 9.570312 9.167969 C 9.570312 9.167969 9.570312 9.167969 9.570312 9.164062 C 9.570312 9.164062 9.570312 9.164062 9.570312 9.160156 L 9.570312 8.167969 L 17.605469 8.167969 L 17.605469 9.957031 C 17.605469 10.035156 17.667969 10.101562 17.75 10.101562 L 19.449219 10.101562 "/>
<path style=" stroke:none;fill-rule:nonzero;fill:rgb(100%,100%,100%);fill-opacity:1;" d="M 18.304688 20.269531 L 18.304688 21.121094 L 8.425781 21.121094 L 8.425781 9.3125 L 9.277344 9.3125 L 9.277344 20.121094 C 9.277344 20.203125 9.339844 20.269531 9.421875 20.269531 L 18.304688 20.269531 "/>
<path style=" stroke:none;fill-rule:nonzero;fill:rgb(100%,100%,100%);fill-opacity:1;" d="M 21.394531 19.128906 L 21.394531 19.617188 C 21.394531 19.699219 21.328125 19.765625 21.246094 19.765625 C 21.167969 19.765625 21.101562 19.699219 21.101562 19.617188 L 21.101562 19.128906 L 21.394531 19.128906 "/>
</g>
</svg>
