<?xml version="1.0" encoding="UTF-8"?>
<svg xmlns="http://www.w3.org/2000/svg" xmlns:xlink="http://www.w3.org/1999/xlink" width="30pt" height="30.000001pt" viewBox="0 0 30 30.000001" version="1.2">
<defs>
<clipPath id="clip1">
  <path d="M 1 0.617188 L 29.515625 0.617188 L 29.515625 28.199219 L 1 28.199219 Z M 1 0.617188 "/>
</clipPath>
</defs>
<g id="surface1">
<path style=" stroke:none;fill-rule:nonzero;fill:rgb(100%,100%,100%);fill-opacity:1;" d="M 12.210938 4.492188 C 12.378906 4.492188 12.519531 4.355469 12.519531 4.1875 C 12.519531 4.015625 12.378906 3.878906 12.210938 3.878906 C 10.234375 3.878906 8.378906 4.640625 6.980469 6.027344 C 5.585938 7.414062 4.816406 9.253906 4.816406 11.214844 C 4.816406 11.382812 4.953125 11.519531 5.125 11.519531 C 5.296875 11.519531 5.433594 11.382812 5.433594 11.214844 C 5.433594 9.417969 6.140625 7.730469 7.417969 6.460938 C 8.699219 5.191406 10.398438 4.492188 12.210938 4.492188 Z M 12.210938 4.492188 "/>
<g clip-path="url(#clip1)" clip-rule="nonzero">
<path style=" stroke:none;fill-rule:nonzero;fill:rgb(100%,100%,100%);fill-opacity:1;" d="M 12.210938 21.804688 C 14.570312 21.804688 16.929688 21.03125 18.875 19.484375 L 20.046875 20.644531 C 19.945312 21.261719 20.128906 21.914062 20.609375 22.386719 L 25.871094 27.605469 C 26.265625 28 26.78125 28.195312 27.300781 28.195312 C 27.816406 28.195312 28.332031 28 28.730469 27.605469 C 29.519531 26.820312 29.519531 25.550781 28.730469 24.769531 L 23.46875 19.546875 C 22.992188 19.074219 22.332031 18.890625 21.714844 18.988281 L 20.542969 17.828125 C 23.90625 13.667969 23.644531 7.582031 19.753906 3.722656 C 17.671875 1.65625 14.9375 0.621094 12.210938 0.621094 C 9.476562 0.621094 6.742188 1.65625 4.660156 3.722656 C 0.488281 7.859375 0.488281 14.566406 4.660156 18.703125 C 6.742188 20.773438 9.476562 21.804688 12.210938 21.804688 Z M 6.328125 5.378906 C 7.898438 3.816406 9.984375 2.960938 12.210938 2.960938 C 14.429688 2.960938 16.515625 3.816406 18.089844 5.378906 C 19.660156 6.9375 20.523438 9.007812 20.523438 11.214844 C 20.523438 13.417969 19.660156 15.488281 18.089844 17.046875 C 16.515625 18.605469 14.429688 19.464844 12.210938 19.464844 C 9.984375 19.464844 7.898438 18.605469 6.328125 17.046875 C 4.753906 15.488281 3.890625 13.417969 3.890625 11.214844 C 3.890625 9.007812 4.753906 6.9375 6.328125 5.378906 Z M 6.328125 5.378906 "/>
</g>
</g>
</svg>
