<?xml version="1.0" encoding="UTF-8"?>
<svg xmlns="http://www.w3.org/2000/svg" xmlns:xlink="http://www.w3.org/1999/xlink" width="30pt" height="30.000001pt" viewBox="0 0 30 30.000001" version="1.2">
<defs>
<clipPath id="clip1">
  <path d="M 0.882812 0.398438 L 29.191406 0.398438 L 29.191406 28.707031 L 0.882812 28.707031 Z M 0.882812 0.398438 "/>
</clipPath>
</defs>
<g id="surface1">
<g clip-path="url(#clip1)" clip-rule="nonzero">
<path style=" stroke:none;fill-rule:evenodd;fill:rgb(0%,0%,0%);fill-opacity:1;" d="M 18.015625 19.363281 L 27.253906 28.597656 C 27.496094 28.84375 27.890625 28.84375 28.136719 28.597656 L 29.011719 27.722656 C 29.257812 27.476562 29.257812 27.078125 29.011719 26.847656 L 19.777344 17.601562 C 21.199219 15.796875 22.046875 13.519531 22.046875 11.050781 C 22.046875 5.207031 17.308594 0.46875 11.464844 0.46875 C 5.625 0.46875 0.882812 5.207031 0.882812 11.050781 C 0.882812 16.894531 5.625 21.632812 11.464844 21.632812 C 13.9375 21.632812 16.210938 20.785156 18.015625 19.363281 Z M 11.464844 20.386719 C 16.621094 20.386719 20.804688 16.207031 20.804688 11.050781 C 20.804688 5.902344 16.621094 1.714844 11.464844 1.714844 C 6.308594 1.714844 2.128906 5.902344 2.128906 11.050781 C 2.128906 16.207031 6.308594 20.386719 11.464844 20.386719 Z M 11.464844 20.386719 "/>
</g>
</g>
</svg>
