<?xml version="1.0" encoding="UTF-8"?>
<svg xmlns="http://www.w3.org/2000/svg" xmlns:xlink="http://www.w3.org/1999/xlink" width="150pt" height="149.999998pt" viewBox="0 0 150 149.999998" version="1.2">
<defs>
<clipPath id="clip1">
  <path d="M 5.109375 7.46875 L 144.339844 7.46875 L 144.339844 142.410156 L 5.109375 142.410156 Z M 5.109375 7.46875 "/>
</clipPath>
</defs>
<g id="surface1">
<path style=" stroke:none;fill-rule:nonzero;fill:rgb(91.369629%,92.939758%,96.078491%);fill-opacity:1;" d="M 104.878906 130.777344 L 107.199219 137.757812 L 104.878906 140.082031 L 44.570312 140.082031 L 42.25 137.757812 L 44.570312 130.777344 Z M 104.878906 130.777344 "/>
<path style=" stroke:none;fill-rule:nonzero;fill:rgb(74.508667%,76.469421%,82.348633%);fill-opacity:1;" d="M 97.921875 130.777344 L 51.527344 130.777344 C 59.648438 122.632812 58.488281 116.816406 58.488281 116.816406 L 90.960938 116.816406 C 90.960938 116.816406 89.800781 122.632812 97.921875 130.777344 Z M 97.921875 130.777344 "/>
<path style=" stroke:none;fill-rule:nonzero;fill:rgb(74.508667%,76.469421%,82.348633%);fill-opacity:1;" d="M 79.363281 102.859375 C 79.363281 103.164062 79.335938 103.464844 79.273438 103.765625 C 79.214844 104.066406 79.128906 104.355469 79.011719 104.640625 C 78.894531 104.921875 78.75 105.1875 78.582031 105.441406 C 78.414062 105.695312 78.222656 105.933594 78.003906 106.148438 C 77.789062 106.363281 77.554688 106.558594 77.300781 106.726562 C 77.050781 106.898438 76.78125 107.039062 76.5 107.15625 C 76.21875 107.273438 75.929688 107.363281 75.628906 107.421875 C 75.332031 107.480469 75.03125 107.511719 74.726562 107.511719 C 74.421875 107.511719 74.117188 107.480469 73.820312 107.421875 C 73.519531 107.363281 73.230469 107.273438 72.949219 107.15625 C 72.667969 107.039062 72.402344 106.898438 72.148438 106.726562 C 71.894531 106.558594 71.660156 106.363281 71.445312 106.148438 C 71.230469 105.933594 71.035156 105.695312 70.867188 105.441406 C 70.699219 105.1875 70.554688 104.921875 70.4375 104.640625 C 70.324219 104.355469 70.234375 104.066406 70.175781 103.765625 C 70.117188 103.464844 70.085938 103.164062 70.085938 102.859375 C 70.085938 102.550781 70.117188 102.25 70.175781 101.949219 C 70.234375 101.652344 70.324219 101.359375 70.4375 101.078125 C 70.554688 100.796875 70.699219 100.527344 70.867188 100.273438 C 71.035156 100.019531 71.230469 99.785156 71.445312 99.566406 C 71.660156 99.351562 71.894531 99.160156 72.148438 98.988281 C 72.402344 98.820312 72.667969 98.675781 72.949219 98.558594 C 73.230469 98.441406 73.519531 98.355469 73.820312 98.292969 C 74.117188 98.234375 74.421875 98.203125 74.726562 98.203125 C 75.03125 98.203125 75.332031 98.234375 75.628906 98.292969 C 75.929688 98.355469 76.21875 98.441406 76.5 98.558594 C 76.78125 98.675781 77.050781 98.820312 77.300781 98.988281 C 77.554688 99.160156 77.789062 99.351562 78.003906 99.566406 C 78.222656 99.785156 78.414062 100.019531 78.582031 100.273438 C 78.75 100.527344 78.894531 100.796875 79.011719 101.078125 C 79.128906 101.359375 79.214844 101.652344 79.273438 101.949219 C 79.335938 102.25 79.363281 102.550781 79.363281 102.859375 Z M 79.363281 102.859375 "/>
<path style=" stroke:none;fill-rule:nonzero;fill:rgb(91.369629%,92.939758%,96.078491%);fill-opacity:1;" d="M 141.996094 88.898438 L 141.996094 107.511719 C 141.996094 108.121094 141.933594 108.726562 141.816406 109.328125 C 141.695312 109.925781 141.519531 110.507812 141.289062 111.074219 C 141.054688 111.636719 140.769531 112.171875 140.429688 112.679688 C 140.09375 113.191406 139.707031 113.660156 139.277344 114.089844 C 138.847656 114.523438 138.378906 114.910156 137.871094 115.25 C 137.363281 115.589844 136.828125 115.875 136.265625 116.109375 C 135.703125 116.34375 135.125 116.519531 134.527344 116.640625 C 133.929688 116.757812 133.324219 116.816406 132.714844 116.816406 L 16.734375 116.816406 C 16.125 116.816406 15.523438 116.757812 14.925781 116.640625 C 14.328125 116.519531 13.746094 116.34375 13.183594 116.109375 C 12.621094 115.875 12.085938 115.589844 11.578125 115.25 C 11.074219 114.910156 10.605469 114.523438 10.171875 114.089844 C 9.742188 113.660156 9.359375 113.191406 9.019531 112.679688 C 8.679688 112.171875 8.394531 111.636719 8.164062 111.074219 C 7.929688 110.507812 7.753906 109.925781 7.632812 109.328125 C 7.515625 108.726562 7.457031 108.121094 7.457031 107.511719 L 7.457031 88.898438 Z M 79.363281 102.859375 C 79.363281 102.550781 79.335938 102.25 79.273438 101.949219 C 79.214844 101.652344 79.128906 101.359375 79.011719 101.078125 C 78.894531 100.796875 78.75 100.527344 78.582031 100.273438 C 78.414062 100.019531 78.222656 99.785156 78.003906 99.566406 C 77.789062 99.351562 77.554688 99.160156 77.300781 98.988281 C 77.050781 98.820312 76.78125 98.675781 76.5 98.558594 C 76.21875 98.441406 75.929688 98.355469 75.628906 98.292969 C 75.332031 98.234375 75.03125 98.203125 74.726562 98.203125 C 74.421875 98.203125 74.117188 98.234375 73.820312 98.292969 C 73.519531 98.355469 73.230469 98.441406 72.949219 98.558594 C 72.667969 98.675781 72.402344 98.820312 72.148438 98.988281 C 71.894531 99.160156 71.660156 99.351562 71.445312 99.566406 C 71.230469 99.785156 71.035156 100.019531 70.867188 100.273438 C 70.699219 100.527344 70.554688 100.796875 70.4375 101.078125 C 70.324219 101.359375 70.234375 101.652344 70.175781 101.949219 C 70.117188 102.25 70.085938 102.550781 70.085938 102.859375 C 70.085938 103.164062 70.117188 103.464844 70.175781 103.765625 C 70.234375 104.066406 70.324219 104.355469 70.4375 104.640625 C 70.554688 104.921875 70.699219 105.1875 70.867188 105.441406 C 71.035156 105.695312 71.230469 105.933594 71.445312 106.148438 C 71.660156 106.363281 71.894531 106.558594 72.148438 106.726562 C 72.402344 106.898438 72.667969 107.039062 72.949219 107.15625 C 73.230469 107.273438 73.519531 107.363281 73.820312 107.421875 C 74.117188 107.480469 74.421875 107.511719 74.726562 107.511719 C 75.03125 107.511719 75.332031 107.480469 75.628906 107.417969 C 75.925781 107.359375 76.21875 107.269531 76.5 107.152344 C 76.78125 107.035156 77.046875 106.890625 77.300781 106.722656 C 77.550781 106.554688 77.785156 106.359375 78 106.144531 C 78.214844 105.929688 78.410156 105.695312 78.578125 105.441406 C 78.746094 105.1875 78.890625 104.917969 79.007812 104.636719 C 79.125 104.355469 79.214844 104.0625 79.273438 103.765625 C 79.332031 103.464844 79.363281 103.164062 79.363281 102.859375 Z M 79.363281 102.859375 "/>
<path style=" stroke:none;fill-rule:nonzero;fill:rgb(39.608765%,69.40918%,98.81897%);fill-opacity:1;" d="M 141.996094 19.101562 L 141.996094 88.898438 L 7.457031 88.898438 L 7.457031 19.101562 C 7.457031 18.492188 7.515625 17.886719 7.632812 17.285156 C 7.753906 16.6875 7.929688 16.105469 8.164062 15.539062 C 8.394531 14.976562 8.679688 14.4375 9.019531 13.929688 C 9.359375 13.421875 9.742188 12.953125 10.171875 12.519531 C 10.605469 12.089844 11.074219 11.703125 11.578125 11.363281 C 12.085938 11.023438 12.621094 10.738281 13.183594 10.503906 C 13.746094 10.269531 14.328125 10.09375 14.925781 9.972656 C 15.523438 9.855469 16.125 9.796875 16.734375 9.796875 L 132.714844 9.796875 C 133.324219 9.796875 133.929688 9.855469 134.527344 9.972656 C 135.125 10.09375 135.703125 10.269531 136.265625 10.503906 C 136.828125 10.738281 137.363281 11.023438 137.871094 11.363281 C 138.378906 11.703125 138.847656 12.089844 139.277344 12.519531 C 139.707031 12.953125 140.09375 13.421875 140.429688 13.929688 C 140.769531 14.4375 141.054688 14.976562 141.289062 15.539062 C 141.519531 16.105469 141.695312 16.6875 141.816406 17.285156 C 141.933594 17.886719 141.996094 18.492188 141.996094 19.101562 Z M 141.996094 19.101562 "/>
<path style=" stroke:none;fill-rule:nonzero;fill:rgb(52.938843%,78.039551%,100%);fill-opacity:1;" d="M 46.980469 9.796875 L 16.734375 9.796875 C 16.125 9.796875 15.523438 9.855469 14.925781 9.972656 C 14.328125 10.09375 13.746094 10.269531 13.183594 10.503906 C 12.621094 10.738281 12.085938 11.023438 11.578125 11.363281 C 11.074219 11.703125 10.605469 12.089844 10.171875 12.519531 C 9.742188 12.953125 9.359375 13.421875 9.019531 13.929688 C 8.679688 14.4375 8.394531 14.976562 8.164062 15.539062 C 7.929688 16.105469 7.753906 16.6875 7.632812 17.285156 C 7.515625 17.886719 7.457031 18.492188 7.457031 19.101562 L 7.457031 46.289062 C 9.4375 42.125 11.792969 38.183594 14.527344 34.472656 C 17.261719 30.757812 20.320312 27.339844 23.703125 24.214844 C 27.089844 21.089844 30.738281 18.3125 34.65625 15.886719 C 38.570312 13.460938 42.679688 11.433594 46.980469 9.796875 Z M 46.980469 9.796875 "/>
<path style=" stroke:none;fill-rule:nonzero;fill:rgb(63.919067%,83.139038%,100%);fill-opacity:1;" d="M 9.988281 88.898438 C 10.144531 86.589844 10.390625 84.289062 10.726562 82 C 11.0625 79.710938 11.488281 77.4375 12.007812 75.183594 C 12.523438 72.925781 13.128906 70.695312 13.824219 68.488281 C 14.515625 66.28125 15.296875 64.105469 16.164062 61.957031 C 17.03125 59.8125 17.980469 57.707031 19.015625 55.636719 C 20.046875 53.566406 21.164062 51.542969 22.355469 49.5625 C 23.550781 47.582031 24.820312 45.652344 26.167969 43.773438 C 27.515625 41.894531 28.9375 40.074219 30.429688 38.308594 C 31.921875 36.542969 33.480469 34.839844 35.109375 33.199219 C 36.734375 31.554688 38.425781 29.984375 40.175781 28.476562 C 41.929688 26.96875 43.738281 25.535156 45.601562 24.175781 C 47.46875 22.8125 49.386719 21.527344 51.355469 20.316406 C 53.320312 19.109375 55.332031 17.980469 57.390625 16.933594 C 59.449219 15.882812 61.542969 14.917969 63.679688 14.039062 C 65.8125 13.15625 67.976562 12.363281 70.175781 11.652344 C 72.371094 10.945312 74.59375 10.324219 76.839844 9.796875 L 46.980469 9.796875 C 42.679688 11.433594 38.570312 13.460938 34.65625 15.886719 C 30.738281 18.3125 27.089844 21.089844 23.703125 24.214844 C 20.320312 27.339844 17.261719 30.757812 14.527344 34.472656 C 11.792969 38.183594 9.4375 42.125 7.457031 46.289062 L 7.457031 88.898438 Z M 9.988281 88.898438 "/>
<path style=" stroke:none;fill-rule:nonzero;fill:rgb(94.898987%,96.469116%,98.81897%);fill-opacity:1;" d="M 30.652344 63.304688 C 30.652344 63.613281 30.621094 63.914062 30.5625 64.214844 C 30.503906 64.515625 30.414062 64.804688 30.300781 65.085938 C 30.183594 65.371094 30.039062 65.636719 29.871094 65.890625 C 29.703125 66.144531 29.507812 66.378906 29.292969 66.597656 C 29.078125 66.8125 28.84375 67.003906 28.589844 67.175781 C 28.335938 67.34375 28.070312 67.488281 27.789062 67.605469 C 27.507812 67.722656 27.21875 67.808594 26.917969 67.871094 C 26.621094 67.929688 26.316406 67.960938 26.011719 67.960938 C 25.707031 67.960938 25.40625 67.929688 25.109375 67.871094 C 24.808594 67.808594 24.519531 67.722656 24.238281 67.605469 C 23.957031 67.488281 23.6875 67.34375 23.4375 67.175781 C 23.183594 67.003906 22.949219 66.8125 22.734375 66.597656 C 22.515625 66.378906 22.324219 66.144531 22.15625 65.890625 C 21.988281 65.636719 21.84375 65.371094 21.726562 65.085938 C 21.609375 64.804688 21.523438 64.515625 21.464844 64.214844 C 21.402344 63.914062 21.375 63.613281 21.375 63.304688 C 21.375 63 21.402344 62.699219 21.464844 62.398438 C 21.523438 62.097656 21.609375 61.808594 21.726562 61.527344 C 21.84375 61.242188 21.988281 60.976562 22.15625 60.722656 C 22.324219 60.46875 22.515625 60.230469 22.734375 60.015625 C 22.949219 59.800781 23.183594 59.605469 23.4375 59.4375 C 23.6875 59.269531 23.957031 59.125 24.238281 59.007812 C 24.519531 58.890625 24.808594 58.800781 25.109375 58.742188 C 25.40625 58.683594 25.707031 58.652344 26.011719 58.652344 C 26.316406 58.652344 26.621094 58.683594 26.917969 58.742188 C 27.21875 58.800781 27.507812 58.890625 27.789062 59.007812 C 28.070312 59.125 28.335938 59.269531 28.589844 59.4375 C 28.84375 59.605469 29.078125 59.800781 29.292969 60.015625 C 29.507812 60.230469 29.703125 60.46875 29.871094 60.722656 C 30.039062 60.976562 30.183594 61.242188 30.300781 61.527344 C 30.414062 61.808594 30.503906 62.097656 30.5625 62.398438 C 30.621094 62.699219 30.652344 63 30.652344 63.304688 Z M 30.652344 63.304688 "/>
<path style=" stroke:none;fill-rule:nonzero;fill:rgb(94.898987%,96.469116%,98.81897%);fill-opacity:1;" d="M 49.210938 63.304688 C 49.210938 63.613281 49.179688 63.914062 49.121094 64.214844 C 49.0625 64.515625 48.972656 64.804688 48.855469 65.085938 C 48.738281 65.371094 48.597656 65.636719 48.425781 65.890625 C 48.257812 66.144531 48.066406 66.378906 47.851562 66.597656 C 47.636719 66.8125 47.402344 67.003906 47.148438 67.175781 C 46.894531 67.34375 46.625 67.488281 46.34375 67.605469 C 46.0625 67.722656 45.773438 67.808594 45.476562 67.871094 C 45.175781 67.929688 44.875 67.960938 44.570312 67.960938 C 44.265625 67.960938 43.964844 67.929688 43.664062 67.871094 C 43.367188 67.808594 43.074219 67.722656 42.792969 67.605469 C 42.511719 67.488281 42.246094 67.34375 41.992188 67.175781 C 41.738281 67.003906 41.503906 66.8125 41.289062 66.597656 C 41.074219 66.378906 40.882812 66.144531 40.710938 65.890625 C 40.542969 65.636719 40.402344 65.371094 40.285156 65.085938 C 40.167969 64.804688 40.078125 64.515625 40.019531 64.214844 C 39.960938 63.914062 39.929688 63.613281 39.929688 63.304688 C 39.929688 63 39.960938 62.699219 40.019531 62.398438 C 40.078125 62.097656 40.167969 61.808594 40.285156 61.527344 C 40.402344 61.242188 40.542969 60.976562 40.710938 60.722656 C 40.882812 60.46875 41.074219 60.230469 41.289062 60.015625 C 41.503906 59.800781 41.738281 59.605469 41.992188 59.4375 C 42.246094 59.269531 42.511719 59.125 42.792969 59.007812 C 43.074219 58.890625 43.367188 58.800781 43.664062 58.742188 C 43.964844 58.683594 44.265625 58.652344 44.570312 58.652344 C 44.875 58.652344 45.175781 58.683594 45.476562 58.742188 C 45.773438 58.800781 46.0625 58.890625 46.34375 59.007812 C 46.625 59.125 46.894531 59.269531 47.148438 59.4375 C 47.402344 59.605469 47.636719 59.800781 47.851562 60.015625 C 48.066406 60.230469 48.257812 60.46875 48.425781 60.722656 C 48.597656 60.976562 48.738281 61.242188 48.855469 61.527344 C 48.972656 61.808594 49.0625 62.097656 49.121094 62.398438 C 49.179688 62.699219 49.210938 63 49.210938 63.304688 Z M 49.210938 63.304688 "/>
<path style=" stroke:none;fill-rule:nonzero;fill:rgb(94.898987%,96.469116%,98.81897%);fill-opacity:1;" d="M 111.839844 35.386719 C 111.839844 35.691406 111.808594 35.996094 111.75 36.296875 C 111.691406 36.59375 111.601562 36.886719 111.484375 37.167969 C 111.371094 37.449219 111.226562 37.71875 111.058594 37.972656 C 110.886719 38.226562 110.695312 38.460938 110.480469 38.675781 C 110.265625 38.894531 110.03125 39.085938 109.777344 39.257812 C 109.523438 39.425781 109.257812 39.570312 108.976562 39.6875 C 108.695312 39.804688 108.402344 39.890625 108.105469 39.949219 C 107.804688 40.011719 107.503906 40.039062 107.199219 40.039062 C 106.894531 40.039062 106.59375 40.011719 106.292969 39.949219 C 105.996094 39.890625 105.707031 39.804688 105.425781 39.6875 C 105.144531 39.570312 104.875 39.425781 104.621094 39.257812 C 104.371094 39.085938 104.136719 38.894531 103.917969 38.675781 C 103.703125 38.460938 103.511719 38.226562 103.34375 37.972656 C 103.171875 37.71875 103.03125 37.449219 102.914062 37.167969 C 102.796875 36.886719 102.710938 36.59375 102.648438 36.296875 C 102.589844 35.996094 102.5625 35.691406 102.5625 35.386719 C 102.5625 35.082031 102.589844 34.777344 102.648438 34.480469 C 102.710938 34.179688 102.796875 33.890625 102.914062 33.605469 C 103.03125 33.324219 103.171875 33.054688 103.34375 32.800781 C 103.511719 32.546875 103.703125 32.3125 103.917969 32.097656 C 104.136719 31.882812 104.371094 31.6875 104.621094 31.519531 C 104.875 31.347656 105.144531 31.207031 105.425781 31.089844 C 105.707031 30.972656 105.996094 30.882812 106.292969 30.824219 C 106.59375 30.765625 106.894531 30.734375 107.199219 30.734375 C 107.503906 30.734375 107.804688 30.765625 108.105469 30.824219 C 108.402344 30.882812 108.695312 30.972656 108.976562 31.089844 C 109.257812 31.207031 109.523438 31.347656 109.777344 31.519531 C 110.03125 31.6875 110.265625 31.882812 110.480469 32.097656 C 110.695312 32.3125 110.886719 32.546875 111.058594 32.800781 C 111.226562 33.054688 111.371094 33.324219 111.484375 33.605469 C 111.601562 33.890625 111.691406 34.179688 111.75 34.480469 C 111.808594 34.777344 111.839844 35.082031 111.839844 35.386719 Z M 111.839844 35.386719 "/>
<path style=" stroke:none;fill-rule:nonzero;fill:rgb(94.898987%,96.469116%,98.81897%);fill-opacity:1;" d="M 130.394531 35.386719 C 130.394531 35.691406 130.367188 35.996094 130.308594 36.296875 C 130.246094 36.59375 130.160156 36.886719 130.042969 37.167969 C 129.925781 37.449219 129.785156 37.71875 129.613281 37.972656 C 129.445312 38.226562 129.253906 38.460938 129.039062 38.675781 C 128.820312 38.894531 128.585938 39.085938 128.335938 39.257812 C 128.082031 39.425781 127.8125 39.570312 127.53125 39.6875 C 127.25 39.804688 126.960938 39.890625 126.660156 39.949219 C 126.363281 40.011719 126.0625 40.039062 125.757812 40.039062 C 125.453125 40.039062 125.152344 40.011719 124.851562 39.949219 C 124.554688 39.890625 124.261719 39.804688 123.980469 39.6875 C 123.699219 39.570312 123.433594 39.425781 123.179688 39.257812 C 122.925781 39.085938 122.691406 38.894531 122.476562 38.675781 C 122.261719 38.460938 122.070312 38.226562 121.898438 37.972656 C 121.730469 37.71875 121.585938 37.449219 121.472656 37.167969 C 121.355469 36.886719 121.265625 36.59375 121.207031 36.296875 C 121.148438 35.996094 121.117188 35.691406 121.117188 35.386719 C 121.117188 35.082031 121.148438 34.777344 121.207031 34.480469 C 121.265625 34.179688 121.355469 33.890625 121.472656 33.605469 C 121.585938 33.324219 121.730469 33.054688 121.898438 32.800781 C 122.070312 32.546875 122.261719 32.3125 122.476562 32.097656 C 122.691406 31.882812 122.925781 31.6875 123.179688 31.519531 C 123.433594 31.347656 123.699219 31.207031 123.980469 31.089844 C 124.261719 30.972656 124.554688 30.882812 124.851562 30.824219 C 125.152344 30.765625 125.453125 30.734375 125.757812 30.734375 C 126.0625 30.734375 126.363281 30.765625 126.660156 30.824219 C 126.960938 30.882812 127.25 30.972656 127.53125 31.089844 C 127.8125 31.207031 128.082031 31.347656 128.335938 31.519531 C 128.585938 31.6875 128.820312 31.882812 129.039062 32.097656 C 129.253906 32.3125 129.445312 32.546875 129.613281 32.800781 C 129.785156 33.054688 129.925781 33.324219 130.042969 33.605469 C 130.160156 33.890625 130.246094 34.179688 130.308594 34.480469 C 130.367188 34.777344 130.394531 35.082031 130.394531 35.386719 Z M 130.394531 35.386719 "/>
<path style=" stroke:none;fill-rule:nonzero;fill:rgb(94.898987%,96.469116%,98.81897%);fill-opacity:1;" d="M 28.332031 35.386719 C 28.332031 35.695312 28.273438 35.992188 28.15625 36.277344 C 28.039062 36.5625 27.871094 36.8125 27.652344 37.03125 C 27.4375 37.25 27.183594 37.417969 26.902344 37.535156 C 26.617188 37.65625 26.320312 37.714844 26.011719 37.714844 C 25.707031 37.714844 25.410156 37.65625 25.125 37.535156 C 24.839844 37.417969 24.589844 37.25 24.371094 37.03125 C 24.15625 36.8125 23.988281 36.5625 23.871094 36.277344 C 23.753906 35.992188 23.695312 35.695312 23.695312 35.386719 C 23.695312 35.078125 23.753906 34.78125 23.871094 34.496094 C 23.988281 34.210938 24.15625 33.960938 24.371094 33.742188 C 24.589844 33.523438 24.839844 33.355469 25.125 33.238281 C 25.410156 33.121094 25.707031 33.0625 26.011719 33.0625 C 26.320312 33.0625 26.617188 33.121094 26.902344 33.238281 C 27.183594 33.355469 27.4375 33.523438 27.652344 33.742188 C 27.871094 33.960938 28.039062 34.210938 28.15625 34.496094 C 28.273438 34.78125 28.332031 35.078125 28.332031 35.386719 Z M 28.332031 35.386719 "/>
<path style=" stroke:none;fill-rule:nonzero;fill:rgb(94.898987%,96.469116%,98.81897%);fill-opacity:1;" d="M 28.332031 47.019531 C 28.332031 47.328125 28.273438 47.625 28.15625 47.910156 C 28.039062 48.195312 27.871094 48.445312 27.652344 48.664062 C 27.4375 48.882812 27.183594 49.050781 26.902344 49.167969 C 26.617188 49.289062 26.320312 49.347656 26.011719 49.347656 C 25.707031 49.347656 25.410156 49.289062 25.125 49.167969 C 24.839844 49.050781 24.589844 48.882812 24.371094 48.664062 C 24.15625 48.445312 23.988281 48.195312 23.871094 47.910156 C 23.753906 47.625 23.695312 47.328125 23.695312 47.019531 C 23.695312 46.710938 23.753906 46.414062 23.871094 46.128906 C 23.988281 45.84375 24.15625 45.59375 24.371094 45.375 C 24.589844 45.15625 24.839844 44.988281 25.125 44.871094 C 25.410156 44.753906 25.707031 44.695312 26.011719 44.695312 C 26.320312 44.695312 26.617188 44.753906 26.902344 44.871094 C 27.183594 44.988281 27.4375 45.15625 27.652344 45.375 C 27.871094 45.59375 28.039062 45.84375 28.15625 46.128906 C 28.273438 46.414062 28.332031 46.710938 28.332031 47.019531 Z M 28.332031 47.019531 "/>
<path style=" stroke:none;fill-rule:nonzero;fill:rgb(0%,0%,0%);fill-opacity:1;" d="M 100.242188 35.386719 C 100.242188 35.84375 100.285156 36.300781 100.375 36.75 C 100.464844 37.199219 100.597656 37.636719 100.769531 38.058594 C 100.945312 38.480469 101.160156 38.882812 101.414062 39.265625 C 101.667969 39.644531 101.957031 40 102.277344 40.324219 C 102.601562 40.648438 102.953125 40.9375 103.332031 41.191406 C 103.714844 41.445312 104.113281 41.660156 104.535156 41.835938 C 104.957031 42.011719 105.394531 42.144531 105.84375 42.234375 C 106.289062 42.324219 106.742188 42.367188 107.199219 42.367188 C 107.65625 42.367188 108.109375 42.324219 108.558594 42.234375 C 109.003906 42.144531 109.441406 42.011719 109.863281 41.835938 C 110.285156 41.660156 110.6875 41.445312 111.066406 41.191406 C 111.445312 40.9375 111.796875 40.648438 112.121094 40.324219 C 112.445312 40 112.730469 39.644531 112.984375 39.265625 C 113.238281 38.882812 113.453125 38.480469 113.628906 38.058594 C 113.804688 37.636719 113.9375 37.199219 114.023438 36.75 C 114.113281 36.300781 114.160156 35.84375 114.160156 35.386719 C 114.160156 19.289062 102.675781 19.101562 102.5625 19.101562 C 102.257812 19.101562 101.964844 19.160156 101.683594 19.277344 C 101.402344 19.394531 101.152344 19.558594 100.9375 19.773438 C 100.722656 19.988281 100.554688 20.238281 100.4375 20.519531 C 100.320312 20.800781 100.257812 21.09375 100.257812 21.398438 C 100.253906 21.703125 100.3125 22 100.425781 22.285156 C 100.539062 22.570312 100.699219 22.820312 100.914062 23.042969 C 101.125 23.261719 101.371094 23.433594 101.652344 23.558594 C 101.933594 23.679688 102.226562 23.746094 102.53125 23.753906 C 103.195312 23.820312 103.839844 23.984375 104.460938 24.238281 C 105.078125 24.496094 105.648438 24.835938 106.167969 25.257812 C 106.6875 25.683594 107.132812 26.175781 107.507812 26.730469 C 107.886719 27.285156 108.171875 27.886719 108.375 28.527344 C 107.875 28.433594 107.371094 28.394531 106.863281 28.410156 C 106.351562 28.429688 105.851562 28.503906 105.363281 28.632812 C 104.871094 28.761719 104.398438 28.945312 103.945312 29.179688 C 103.496094 29.414062 103.074219 29.695312 102.683594 30.023438 C 102.296875 30.351562 101.949219 30.71875 101.640625 31.125 C 101.332031 31.53125 101.074219 31.964844 100.859375 32.429688 C 100.648438 32.894531 100.492188 33.375 100.386719 33.875 C 100.28125 34.371094 100.234375 34.878906 100.242188 35.386719 Z M 107.199219 37.714844 C 106.890625 37.714844 106.597656 37.65625 106.3125 37.535156 C 106.027344 37.417969 105.777344 37.25 105.558594 37.03125 C 105.34375 36.8125 105.175781 36.5625 105.058594 36.277344 C 104.9375 35.992188 104.878906 35.695312 104.878906 35.386719 C 104.878906 35.078125 104.9375 34.78125 105.058594 34.496094 C 105.175781 34.210938 105.34375 33.960938 105.558594 33.742188 C 105.777344 33.523438 106.027344 33.355469 106.3125 33.238281 C 106.597656 33.121094 106.890625 33.0625 107.199219 33.0625 C 107.507812 33.0625 107.804688 33.121094 108.085938 33.238281 C 108.371094 33.355469 108.621094 33.523438 108.839844 33.742188 C 109.058594 33.960938 109.226562 34.210938 109.34375 34.496094 C 109.460938 34.78125 109.519531 35.078125 109.519531 35.386719 C 109.519531 35.695312 109.460938 35.992188 109.34375 36.277344 C 109.226562 36.5625 109.058594 36.8125 108.839844 37.03125 C 108.621094 37.25 108.371094 37.417969 108.085938 37.535156 C 107.804688 37.65625 107.507812 37.714844 107.199219 37.714844 Z M 107.199219 37.714844 "/>
<path style=" stroke:none;fill-rule:nonzero;fill:rgb(0%,0%,0%);fill-opacity:1;" d="M 35.292969 37.714844 L 90.960938 37.714844 C 91.269531 37.714844 91.566406 37.65625 91.851562 37.535156 C 92.132812 37.417969 92.386719 37.25 92.601562 37.03125 C 92.820312 36.8125 92.988281 36.5625 93.105469 36.277344 C 93.222656 35.992188 93.28125 35.695312 93.28125 35.386719 C 93.28125 35.078125 93.222656 34.78125 93.105469 34.496094 C 92.988281 34.210938 92.820312 33.960938 92.601562 33.742188 C 92.386719 33.523438 92.132812 33.355469 91.851562 33.238281 C 91.566406 33.121094 91.269531 33.0625 90.960938 33.0625 L 35.292969 33.0625 C 34.984375 33.0625 34.6875 33.121094 34.402344 33.238281 C 34.121094 33.355469 33.867188 33.523438 33.652344 33.742188 C 33.433594 33.960938 33.265625 34.210938 33.148438 34.496094 C 33.03125 34.78125 32.972656 35.078125 32.972656 35.386719 C 32.972656 35.695312 33.03125 35.992188 33.148438 36.277344 C 33.265625 36.5625 33.433594 36.8125 33.652344 37.03125 C 33.867188 37.25 34.121094 37.417969 34.402344 37.535156 C 34.6875 37.65625 34.984375 37.714844 35.292969 37.714844 Z M 35.292969 37.714844 "/>
<path style=" stroke:none;fill-rule:nonzero;fill:rgb(0%,0%,0%);fill-opacity:1;" d="M 35.292969 49.347656 L 79.363281 49.347656 C 79.671875 49.347656 79.96875 49.289062 80.253906 49.167969 C 80.535156 49.050781 80.789062 48.882812 81.003906 48.664062 C 81.222656 48.445312 81.390625 48.195312 81.507812 47.910156 C 81.625 47.625 81.683594 47.328125 81.683594 47.019531 C 81.683594 46.710938 81.625 46.414062 81.507812 46.128906 C 81.390625 45.84375 81.222656 45.59375 81.003906 45.375 C 80.789062 45.15625 80.535156 44.988281 80.253906 44.871094 C 79.96875 44.753906 79.671875 44.695312 79.363281 44.695312 L 35.292969 44.695312 C 34.984375 44.695312 34.6875 44.753906 34.402344 44.871094 C 34.121094 44.988281 33.867188 45.15625 33.652344 45.375 C 33.433594 45.59375 33.265625 45.84375 33.148438 46.128906 C 33.03125 46.414062 32.972656 46.710938 32.972656 47.019531 C 32.972656 47.328125 33.03125 47.625 33.148438 47.910156 C 33.265625 48.195312 33.433594 48.445312 33.652344 48.664062 C 33.867188 48.882812 34.121094 49.050781 34.402344 49.167969 C 34.6875 49.289062 34.984375 49.347656 35.292969 49.347656 Z M 35.292969 49.347656 "/>
<path style=" stroke:none;fill-rule:nonzero;fill:rgb(0%,0%,0%);fill-opacity:1;" d="M 123.4375 56.328125 L 60.808594 56.328125 C 60.5 56.328125 60.203125 56.386719 59.917969 56.503906 C 59.636719 56.621094 59.382812 56.789062 59.167969 57.007812 C 58.949219 57.226562 58.78125 57.476562 58.664062 57.761719 C 58.546875 58.046875 58.488281 58.34375 58.488281 58.652344 C 58.488281 58.960938 58.546875 59.257812 58.664062 59.542969 C 58.78125 59.828125 58.949219 60.082031 59.167969 60.296875 C 59.382812 60.515625 59.636719 60.683594 59.917969 60.800781 C 60.203125 60.921875 60.5 60.980469 60.808594 60.980469 L 123.4375 60.980469 C 123.746094 60.980469 124.039062 60.921875 124.324219 60.800781 C 124.609375 60.683594 124.859375 60.515625 125.078125 60.296875 C 125.296875 60.082031 125.460938 59.828125 125.582031 59.542969 C 125.699219 59.257812 125.757812 58.960938 125.757812 58.652344 C 125.757812 58.34375 125.699219 58.046875 125.582031 57.761719 C 125.460938 57.476562 125.296875 57.226562 125.078125 57.007812 C 124.859375 56.789062 124.609375 56.621094 124.324219 56.503906 C 124.039062 56.386719 123.746094 56.328125 123.4375 56.328125 Z M 123.4375 56.328125 "/>
<path style=" stroke:none;fill-rule:nonzero;fill:rgb(0%,0%,0%);fill-opacity:1;" d="M 104.878906 67.960938 L 60.808594 67.960938 C 60.5 67.960938 60.203125 68.019531 59.917969 68.136719 C 59.636719 68.253906 59.382812 68.421875 59.167969 68.640625 C 58.949219 68.859375 58.78125 69.109375 58.664062 69.394531 C 58.546875 69.679688 58.488281 69.976562 58.488281 70.285156 C 58.488281 70.59375 58.546875 70.890625 58.664062 71.175781 C 58.78125 71.460938 58.949219 71.714844 59.167969 71.929688 C 59.382812 72.148438 59.636719 72.316406 59.917969 72.433594 C 60.203125 72.554688 60.5 72.613281 60.808594 72.613281 L 104.878906 72.613281 C 105.1875 72.613281 105.484375 72.554688 105.769531 72.433594 C 106.050781 72.316406 106.304688 72.148438 106.519531 71.929688 C 106.738281 71.714844 106.90625 71.460938 107.023438 71.175781 C 107.140625 70.890625 107.199219 70.59375 107.199219 70.285156 C 107.199219 69.976562 107.140625 69.679688 107.023438 69.394531 C 106.90625 69.109375 106.738281 68.859375 106.519531 68.640625 C 106.304688 68.421875 106.050781 68.253906 105.769531 68.136719 C 105.484375 68.019531 105.1875 67.960938 104.878906 67.960938 Z M 104.878906 67.960938 "/>
<g clip-path="url(#clip1)" clip-rule="nonzero">
<path style=" stroke:none;fill-rule:nonzero;fill:rgb(0%,0%,0%);fill-opacity:1;" d="M 132.714844 7.46875 L 16.734375 7.46875 C 15.972656 7.46875 15.21875 7.542969 14.472656 7.695312 C 13.726562 7.84375 13 8.066406 12.296875 8.359375 C 11.59375 8.648438 10.925781 9.007812 10.292969 9.433594 C 9.660156 9.859375 9.074219 10.339844 8.539062 10.878906 C 8 11.417969 7.519531 12.007812 7.09375 12.640625 C 6.671875 13.277344 6.316406 13.945312 6.023438 14.652344 C 5.730469 15.355469 5.511719 16.085938 5.363281 16.832031 C 5.210938 17.582031 5.136719 18.335938 5.136719 19.101562 L 5.136719 107.511719 C 5.136719 108.273438 5.210938 109.03125 5.363281 109.78125 C 5.511719 110.527344 5.730469 111.253906 6.023438 111.960938 C 6.316406 112.667969 6.671875 113.335938 7.09375 113.972656 C 7.519531 114.605469 8 115.191406 8.539062 115.734375 C 9.074219 116.273438 9.660156 116.753906 10.292969 117.179688 C 10.925781 117.605469 11.59375 117.960938 12.296875 118.253906 C 13 118.546875 13.726562 118.769531 14.472656 118.917969 C 15.21875 119.066406 15.972656 119.144531 16.734375 119.144531 L 56.046875 119.144531 C 55.582031 120.921875 54.886719 122.601562 53.949219 124.183594 C 53.015625 125.765625 51.882812 127.1875 50.550781 128.449219 L 44.570312 128.449219 C 44.070312 128.449219 43.617188 128.597656 43.214844 128.890625 C 42.808594 129.183594 42.527344 129.566406 42.367188 130.042969 L 40.050781 137.023438 C 39.910156 137.441406 39.890625 137.863281 39.992188 138.292969 C 40.09375 138.71875 40.300781 139.089844 40.609375 139.402344 L 42.929688 141.726562 C 43.382812 142.183594 43.929688 142.410156 44.570312 142.410156 L 104.878906 142.410156 C 105.519531 142.410156 106.066406 142.183594 106.519531 141.726562 L 108.839844 139.402344 C 109.152344 139.089844 109.355469 138.71875 109.457031 138.292969 C 109.558594 137.863281 109.539062 137.441406 109.402344 137.023438 L 107.082031 130.042969 C 106.925781 129.566406 106.640625 129.183594 106.238281 128.890625 C 105.832031 128.597656 105.378906 128.449219 104.878906 128.449219 L 98.898438 128.449219 C 97.566406 127.1875 96.433594 125.765625 95.5 124.183594 C 94.5625 122.601562 93.863281 120.921875 93.394531 119.144531 L 132.714844 119.144531 C 133.476562 119.144531 134.230469 119.066406 134.976562 118.917969 C 135.722656 118.769531 136.449219 118.546875 137.152344 118.253906 C 137.855469 117.960938 138.523438 117.605469 139.15625 117.179688 C 139.789062 116.753906 140.375 116.273438 140.914062 115.734375 C 141.449219 115.191406 141.933594 114.605469 142.355469 113.972656 C 142.777344 113.335938 143.136719 112.667969 143.425781 111.960938 C 143.71875 111.253906 143.941406 110.527344 144.089844 109.78125 C 144.238281 109.03125 144.3125 108.273438 144.3125 107.511719 L 144.3125 19.101562 C 144.3125 18.335938 144.238281 17.582031 144.089844 16.832031 C 143.941406 16.085938 143.71875 15.355469 143.425781 14.652344 C 143.136719 13.945312 142.777344 13.277344 142.355469 12.640625 C 141.933594 12.007812 141.449219 11.417969 140.914062 10.878906 C 140.375 10.339844 139.789062 9.859375 139.15625 9.433594 C 138.523438 9.007812 137.855469 8.648438 137.152344 8.359375 C 136.449219 8.066406 135.722656 7.84375 134.976562 7.695312 C 134.230469 7.542969 133.476562 7.46875 132.714844 7.46875 Z M 16.734375 12.121094 L 132.714844 12.121094 C 133.171875 12.121094 133.625 12.167969 134.074219 12.253906 C 134.523438 12.34375 134.957031 12.476562 135.378906 12.652344 C 135.800781 12.828125 136.203125 13.042969 136.582031 13.296875 C 136.960938 13.550781 137.3125 13.84375 137.636719 14.164062 C 137.960938 14.488281 138.246094 14.84375 138.5 15.222656 C 138.753906 15.605469 138.96875 16.007812 139.144531 16.429688 C 139.320312 16.855469 139.453125 17.289062 139.539062 17.738281 C 139.628906 18.1875 139.675781 18.644531 139.675781 19.101562 L 139.675781 86.570312 L 9.777344 86.570312 L 9.777344 19.101562 C 9.777344 18.644531 9.820312 18.1875 9.910156 17.738281 C 10 17.289062 10.128906 16.855469 10.304688 16.429688 C 10.480469 16.007812 10.695312 15.605469 10.949219 15.222656 C 11.203125 14.84375 11.492188 14.488281 11.8125 14.164062 C 12.136719 13.84375 12.488281 13.550781 12.867188 13.296875 C 13.25 13.042969 13.648438 12.828125 14.070312 12.652344 C 14.492188 12.476562 14.929688 12.34375 15.375 12.253906 C 15.824219 12.167969 16.277344 12.121094 16.734375 12.121094 Z M 104.546875 137.128906 L 103.921875 137.757812 L 45.53125 137.757812 L 44.902344 137.128906 L 46.242188 133.105469 L 103.207031 133.105469 Z M 92.847656 128.449219 L 56.601562 128.449219 C 58.800781 125.714844 60.1875 122.609375 60.765625 119.144531 L 88.683594 119.144531 C 89.261719 122.609375 90.652344 125.714844 92.847656 128.449219 Z M 132.714844 114.492188 L 16.734375 114.492188 C 16.277344 114.492188 15.824219 114.445312 15.375 114.355469 C 14.929688 114.265625 14.492188 114.136719 14.070312 113.960938 C 13.648438 113.785156 13.25 113.570312 12.867188 113.316406 C 12.488281 113.058594 12.136719 112.769531 11.8125 112.445312 C 11.492188 112.121094 11.203125 111.769531 10.949219 111.390625 C 10.695312 111.007812 10.480469 110.605469 10.304688 110.183594 C 10.128906 109.757812 10 109.324219 9.910156 108.871094 C 9.820312 108.421875 9.777344 107.96875 9.777344 107.511719 L 9.777344 91.226562 L 139.675781 91.226562 L 139.675781 107.511719 C 139.675781 107.96875 139.628906 108.421875 139.539062 108.871094 C 139.453125 109.324219 139.320312 109.757812 139.144531 110.183594 C 138.96875 110.605469 138.753906 111.007812 138.5 111.390625 C 138.246094 111.769531 137.960938 112.121094 137.636719 112.445312 C 137.3125 112.769531 136.960938 113.058594 136.582031 113.316406 C 136.203125 113.570312 135.800781 113.785156 135.378906 113.960938 C 134.957031 114.136719 134.523438 114.265625 134.074219 114.355469 C 133.625 114.445312 133.171875 114.492188 132.714844 114.492188 Z M 132.714844 114.492188 "/>
</g>
<path style=" stroke:none;fill-rule:nonzero;fill:rgb(0%,0%,0%);fill-opacity:1;" d="M 74.726562 95.878906 C 74.269531 95.878906 73.816406 95.921875 73.367188 96.011719 C 72.917969 96.101562 72.484375 96.234375 72.0625 96.410156 C 71.640625 96.585938 71.238281 96.800781 70.859375 97.054688 C 70.480469 97.308594 70.128906 97.597656 69.804688 97.921875 C 69.480469 98.246094 69.191406 98.597656 68.9375 98.980469 C 68.683594 99.363281 68.472656 99.761719 68.296875 100.1875 C 68.121094 100.609375 67.988281 101.046875 67.898438 101.496094 C 67.8125 101.945312 67.765625 102.398438 67.765625 102.859375 C 67.765625 103.316406 67.8125 103.769531 67.898438 104.21875 C 67.988281 104.667969 68.121094 105.105469 68.296875 105.527344 C 68.472656 105.953125 68.683594 106.355469 68.9375 106.734375 C 69.191406 107.117188 69.480469 107.46875 69.804688 107.792969 C 70.128906 108.117188 70.480469 108.40625 70.859375 108.660156 C 71.238281 108.917969 71.640625 109.132812 72.0625 109.304688 C 72.484375 109.480469 72.917969 109.613281 73.367188 109.703125 C 73.816406 109.792969 74.269531 109.835938 74.726562 109.835938 C 75.183594 109.835938 75.632812 109.792969 76.082031 109.703125 C 76.53125 109.613281 76.964844 109.480469 77.386719 109.304688 C 77.808594 109.132812 78.210938 108.917969 78.589844 108.660156 C 78.972656 108.40625 79.324219 108.117188 79.644531 107.792969 C 79.96875 107.46875 80.257812 107.117188 80.511719 106.734375 C 80.765625 106.355469 80.980469 105.953125 81.152344 105.527344 C 81.328125 105.105469 81.460938 104.667969 81.550781 104.21875 C 81.640625 103.769531 81.683594 103.316406 81.683594 102.859375 C 81.683594 102.398438 81.640625 101.945312 81.550781 101.496094 C 81.460938 101.046875 81.328125 100.609375 81.152344 100.1875 C 80.980469 99.761719 80.765625 99.363281 80.511719 98.980469 C 80.257812 98.597656 79.96875 98.246094 79.644531 97.921875 C 79.324219 97.597656 78.972656 97.308594 78.589844 97.054688 C 78.210938 96.800781 77.808594 96.585938 77.386719 96.410156 C 76.964844 96.234375 76.53125 96.101562 76.082031 96.011719 C 75.632812 95.921875 75.183594 95.878906 74.726562 95.878906 Z M 74.726562 105.183594 C 74.417969 105.183594 74.121094 105.125 73.835938 105.007812 C 73.554688 104.890625 73.300781 104.722656 73.085938 104.503906 C 72.867188 104.285156 72.699219 104.035156 72.582031 103.75 C 72.464844 103.464844 72.40625 103.167969 72.40625 102.859375 C 72.40625 102.550781 72.464844 102.253906 72.582031 101.96875 C 72.699219 101.683594 72.867188 101.429688 73.085938 101.214844 C 73.300781 100.996094 73.554688 100.828125 73.835938 100.707031 C 74.121094 100.589844 74.417969 100.53125 74.726562 100.53125 C 75.03125 100.53125 75.328125 100.589844 75.613281 100.707031 C 75.898438 100.828125 76.148438 100.996094 76.367188 101.214844 C 76.582031 101.429688 76.75 101.683594 76.867188 101.96875 C 76.984375 102.253906 77.042969 102.550781 77.042969 102.859375 C 77.042969 103.167969 76.984375 103.464844 76.867188 103.75 C 76.75 104.035156 76.582031 104.285156 76.367188 104.503906 C 76.148438 104.722656 75.898438 104.890625 75.613281 105.007812 C 75.328125 105.125 75.03125 105.183594 74.726562 105.183594 Z M 74.726562 105.183594 "/>
<path style=" stroke:none;fill-rule:nonzero;fill:rgb(0%,0%,0%);fill-opacity:1;" d="M 118.796875 35.386719 C 118.796875 35.84375 118.84375 36.300781 118.933594 36.75 C 119.019531 37.199219 119.152344 37.636719 119.328125 38.058594 C 119.503906 38.480469 119.71875 38.882812 119.972656 39.265625 C 120.226562 39.644531 120.511719 40 120.835938 40.324219 C 121.160156 40.648438 121.511719 40.9375 121.890625 41.191406 C 122.269531 41.445312 122.671875 41.660156 123.09375 41.835938 C 123.515625 42.011719 123.949219 42.144531 124.398438 42.234375 C 124.847656 42.324219 125.300781 42.367188 125.757812 42.367188 C 126.214844 42.367188 126.667969 42.324219 127.113281 42.234375 C 127.5625 42.144531 127.996094 42.011719 128.417969 41.835938 C 128.84375 41.660156 129.242188 41.445312 129.621094 41.191406 C 130.003906 40.9375 130.355469 40.648438 130.675781 40.324219 C 131 40 131.289062 39.644531 131.542969 39.265625 C 131.796875 38.882812 132.011719 38.480469 132.1875 38.058594 C 132.359375 37.636719 132.492188 37.199219 132.582031 36.75 C 132.671875 36.300781 132.714844 35.84375 132.714844 35.386719 C 132.714844 19.289062 121.234375 19.101562 121.117188 19.101562 C 120.8125 19.101562 120.519531 19.160156 120.238281 19.277344 C 119.957031 19.394531 119.710938 19.558594 119.496094 19.773438 C 119.277344 19.988281 119.113281 20.238281 118.996094 20.519531 C 118.875 20.800781 118.816406 21.09375 118.8125 21.398438 C 118.8125 21.703125 118.867188 22 118.980469 22.285156 C 119.09375 22.570312 119.257812 22.820312 119.46875 23.042969 C 119.683594 23.261719 119.929688 23.433594 120.210938 23.558594 C 120.488281 23.679688 120.78125 23.746094 121.085938 23.753906 C 121.753906 23.820312 122.398438 23.984375 123.015625 24.238281 C 123.636719 24.496094 124.203125 24.835938 124.722656 25.257812 C 125.242188 25.683594 125.691406 26.175781 126.066406 26.730469 C 126.441406 27.285156 126.730469 27.886719 126.929688 28.527344 C 126.429688 28.433594 125.925781 28.394531 125.417969 28.410156 C 124.910156 28.429688 124.410156 28.503906 123.917969 28.632812 C 123.425781 28.761719 122.953125 28.945312 122.503906 29.179688 C 122.050781 29.414062 121.632812 29.695312 121.242188 30.023438 C 120.851562 30.351562 120.503906 30.71875 120.195312 31.125 C 119.890625 31.53125 119.628906 31.964844 119.417969 32.429688 C 119.207031 32.894531 119.046875 33.375 118.945312 33.875 C 118.839844 34.371094 118.789062 34.878906 118.796875 35.386719 Z M 125.757812 37.714844 C 125.449219 37.714844 125.152344 37.65625 124.871094 37.535156 C 124.585938 37.417969 124.335938 37.25 124.117188 37.03125 C 123.898438 36.8125 123.730469 36.5625 123.613281 36.277344 C 123.496094 35.992188 123.4375 35.695312 123.4375 35.386719 C 123.4375 35.078125 123.496094 34.78125 123.613281 34.496094 C 123.730469 34.210938 123.898438 33.960938 124.117188 33.742188 C 124.335938 33.523438 124.585938 33.355469 124.871094 33.238281 C 125.152344 33.121094 125.449219 33.0625 125.757812 33.0625 C 126.066406 33.0625 126.359375 33.121094 126.644531 33.238281 C 126.929688 33.355469 127.179688 33.523438 127.398438 33.742188 C 127.613281 33.960938 127.78125 34.210938 127.898438 34.496094 C 128.019531 34.78125 128.078125 35.078125 128.078125 35.386719 C 128.078125 35.695312 128.019531 35.992188 127.898438 36.277344 C 127.78125 36.5625 127.613281 36.8125 127.398438 37.03125 C 127.179688 37.25 126.929688 37.417969 126.644531 37.535156 C 126.359375 37.65625 126.066406 37.714844 125.757812 37.714844 Z M 125.757812 37.714844 "/>
<path style=" stroke:none;fill-rule:nonzero;fill:rgb(0%,0%,0%);fill-opacity:1;" d="M 51.527344 63.304688 C 51.527344 62.847656 51.484375 62.394531 51.394531 61.945312 C 51.304688 61.496094 51.175781 61.058594 51 60.636719 C 50.824219 60.210938 50.609375 59.808594 50.355469 59.429688 C 50.101562 59.046875 49.8125 58.695312 49.492188 58.371094 C 49.167969 58.046875 48.816406 57.757812 48.4375 57.503906 C 48.054688 57.25 47.65625 57.035156 47.234375 56.859375 C 46.8125 56.683594 46.375 56.550781 45.925781 56.460938 C 45.480469 56.371094 45.027344 56.328125 44.570312 56.328125 C 44.113281 56.328125 43.660156 56.371094 43.210938 56.460938 C 42.765625 56.550781 42.328125 56.683594 41.90625 56.859375 C 41.484375 57.035156 41.082031 57.25 40.703125 57.503906 C 40.324219 57.757812 39.972656 58.046875 39.648438 58.371094 C 39.328125 58.695312 39.039062 59.046875 38.785156 59.429688 C 38.53125 59.808594 38.316406 60.210938 38.140625 60.636719 C 37.964844 61.058594 37.835938 61.496094 37.746094 61.945312 C 37.65625 62.394531 37.609375 62.847656 37.609375 63.304688 C 37.609375 79.40625 49.09375 79.59375 49.210938 79.59375 C 49.511719 79.59375 49.804688 79.535156 50.085938 79.417969 C 50.367188 79.300781 50.617188 79.136719 50.832031 78.917969 C 51.046875 78.703125 51.214844 78.457031 51.332031 78.175781 C 51.449219 77.894531 51.511719 77.601562 51.511719 77.296875 C 51.515625 76.988281 51.460938 76.695312 51.34375 76.410156 C 51.230469 76.125 51.070312 75.871094 50.855469 75.652344 C 50.644531 75.429688 50.398438 75.257812 50.117188 75.136719 C 49.835938 75.011719 49.546875 74.945312 49.238281 74.9375 C 48.574219 74.871094 47.929688 74.710938 47.3125 74.453125 C 46.691406 74.199219 46.121094 73.859375 45.601562 73.433594 C 45.082031 73.011719 44.636719 72.519531 44.261719 71.964844 C 43.882812 71.40625 43.597656 70.808594 43.394531 70.167969 C 43.894531 70.261719 44.398438 70.300781 44.910156 70.28125 C 45.417969 70.265625 45.917969 70.191406 46.410156 70.0625 C 46.902344 69.933594 47.371094 69.75 47.824219 69.515625 C 48.273438 69.28125 48.695312 69 49.085938 68.671875 C 49.472656 68.34375 49.824219 67.976562 50.128906 67.570312 C 50.4375 67.164062 50.699219 66.730469 50.910156 66.265625 C 51.121094 65.800781 51.277344 65.320312 51.382812 64.820312 C 51.488281 64.320312 51.535156 63.816406 51.527344 63.304688 Z M 44.570312 60.980469 C 44.878906 60.980469 45.171875 61.039062 45.457031 61.15625 C 45.742188 61.273438 45.992188 61.441406 46.210938 61.660156 C 46.429688 61.878906 46.59375 62.132812 46.714844 62.414062 C 46.832031 62.699219 46.890625 62.996094 46.890625 63.304688 C 46.890625 63.613281 46.832031 63.910156 46.714844 64.195312 C 46.59375 64.480469 46.429688 64.734375 46.210938 64.953125 C 45.992188 65.167969 45.742188 65.335938 45.457031 65.457031 C 45.171875 65.574219 44.878906 65.632812 44.570312 65.632812 C 44.261719 65.632812 43.964844 65.574219 43.683594 65.457031 C 43.398438 65.335938 43.148438 65.167969 42.929688 64.953125 C 42.710938 64.734375 42.542969 64.480469 42.425781 64.195312 C 42.308594 63.910156 42.25 63.613281 42.25 63.304688 C 42.25 62.996094 42.308594 62.699219 42.425781 62.414062 C 42.542969 62.132812 42.710938 61.878906 42.929688 61.660156 C 43.148438 61.441406 43.398438 61.273438 43.683594 61.15625 C 43.964844 61.039062 44.261719 60.980469 44.570312 60.980469 Z M 44.570312 60.980469 "/>
<path style=" stroke:none;fill-rule:nonzero;fill:rgb(0%,0%,0%);fill-opacity:1;" d="M 30.652344 79.59375 C 30.957031 79.59375 31.25 79.535156 31.53125 79.417969 C 31.8125 79.300781 32.058594 79.136719 32.277344 78.917969 C 32.492188 78.703125 32.65625 78.457031 32.777344 78.175781 C 32.894531 77.894531 32.953125 77.601562 32.957031 77.296875 C 32.957031 76.988281 32.902344 76.695312 32.789062 76.410156 C 32.675781 76.125 32.511719 75.871094 32.300781 75.652344 C 32.085938 75.429688 31.839844 75.257812 31.5625 75.136719 C 31.28125 75.011719 30.988281 74.945312 30.683594 74.9375 C 30.015625 74.871094 29.371094 74.710938 28.753906 74.453125 C 28.132812 74.199219 27.566406 73.859375 27.046875 73.433594 C 26.527344 73.011719 26.078125 72.519531 25.703125 71.964844 C 25.328125 71.40625 25.039062 70.808594 24.839844 70.167969 C 25.304688 70.246094 25.777344 70.28125 26.25 70.261719 C 26.722656 70.246094 27.191406 70.183594 27.652344 70.070312 C 28.109375 69.960938 28.554688 69.800781 28.984375 69.597656 C 29.414062 69.394531 29.816406 69.152344 30.195312 68.867188 C 30.574219 68.582031 30.917969 68.261719 31.234375 67.902344 C 31.546875 67.546875 31.820312 67.164062 32.054688 66.75 C 32.289062 66.339844 32.480469 65.90625 32.628906 65.453125 C 32.773438 65.003906 32.875 64.539062 32.929688 64.066406 C 32.980469 63.597656 32.984375 63.125 32.941406 62.648438 C 32.898438 62.175781 32.808594 61.714844 32.671875 61.257812 C 32.535156 60.804688 32.351562 60.367188 32.125 59.949219 C 31.898438 59.535156 31.632812 59.144531 31.328125 58.78125 C 31.019531 58.417969 30.679688 58.089844 30.308594 57.796875 C 29.9375 57.503906 29.539062 57.25 29.113281 57.039062 C 28.6875 56.828125 28.25 56.660156 27.789062 56.539062 C 27.332031 56.417969 26.867188 56.34375 26.394531 56.316406 C 25.921875 56.292969 25.449219 56.316406 24.980469 56.386719 C 24.511719 56.457031 24.054688 56.574219 23.613281 56.738281 C 23.167969 56.902344 22.742188 57.109375 22.339844 57.359375 C 21.9375 57.609375 21.566406 57.898438 21.222656 58.226562 C 20.878906 58.550781 20.570312 58.910156 20.300781 59.300781 C 20.03125 59.691406 19.800781 60.105469 19.617188 60.542969 C 19.429688 60.976562 19.289062 61.429688 19.195312 61.894531 C 19.097656 62.359375 19.054688 62.832031 19.054688 63.304688 C 19.054688 79.40625 30.535156 79.59375 30.652344 79.59375 Z M 26.011719 60.980469 C 26.320312 60.980469 26.617188 61.039062 26.902344 61.15625 C 27.183594 61.273438 27.4375 61.441406 27.652344 61.660156 C 27.871094 61.878906 28.039062 62.132812 28.15625 62.414062 C 28.273438 62.699219 28.332031 62.996094 28.332031 63.304688 C 28.332031 63.613281 28.273438 63.910156 28.15625 64.195312 C 28.039062 64.480469 27.871094 64.734375 27.652344 64.953125 C 27.4375 65.167969 27.183594 65.335938 26.902344 65.457031 C 26.617188 65.574219 26.320312 65.632812 26.011719 65.632812 C 25.707031 65.632812 25.410156 65.574219 25.125 65.457031 C 24.839844 65.335938 24.589844 65.167969 24.371094 64.953125 C 24.15625 64.734375 23.988281 64.480469 23.871094 64.195312 C 23.753906 63.910156 23.695312 63.613281 23.695312 63.304688 C 23.695312 62.996094 23.753906 62.699219 23.871094 62.414062 C 23.988281 62.132812 24.15625 61.878906 24.371094 61.660156 C 24.589844 61.441406 24.839844 61.273438 25.125 61.15625 C 25.410156 61.039062 25.707031 60.980469 26.011719 60.980469 Z M 26.011719 60.980469 "/>
</g>
</svg>
