<?xml version="1.0" encoding="UTF-8"?>
<svg xmlns="http://www.w3.org/2000/svg" xmlns:xlink="http://www.w3.org/1999/xlink" width="30pt" height="30.000001pt" viewBox="0 0 30 30.000001" version="1.2">
<defs>
<clipPath id="clip1">
  <path d="M 2.914062 2.429688 L 26.652344 2.429688 L 26.652344 26.167969 L 2.914062 26.167969 Z M 2.914062 2.429688 "/>
</clipPath>
</defs>
<g id="surface1">
<path style=" stroke:none;fill-rule:nonzero;fill:rgb(91.758728%,17.649841%,25.099182%);fill-opacity:1;" d="M 13.535156 8.679688 L 16.035156 8.679688 L 16.035156 9.304688 L 13.535156 9.304688 Z M 13.535156 8.679688 "/>
<g clip-path="url(#clip1)" clip-rule="nonzero">
<path style=" stroke:none;fill-rule:nonzero;fill:rgb(91.758728%,17.649841%,25.099182%);fill-opacity:1;" d="M 14.785156 2.429688 C 14.003906 2.429688 13.234375 2.507812 12.46875 2.660156 C 11.703125 2.8125 10.960938 3.035156 10.242188 3.335938 C 9.523438 3.632812 8.839844 4 8.191406 4.433594 C 7.542969 4.863281 6.941406 5.355469 6.390625 5.90625 C 5.839844 6.457031 5.347656 7.058594 4.914062 7.707031 C 4.484375 8.355469 4.117188 9.039062 3.820312 9.757812 C 3.519531 10.476562 3.296875 11.21875 3.144531 11.984375 C 2.992188 12.75 2.914062 13.519531 2.914062 14.300781 C 2.914062 15.078125 2.992188 15.851562 3.144531 16.617188 C 3.296875 17.378906 3.519531 18.121094 3.820312 18.84375 C 4.117188 19.5625 4.484375 20.246094 4.914062 20.894531 C 5.347656 21.542969 5.839844 22.140625 6.390625 22.691406 C 6.941406 23.246094 7.542969 23.734375 8.191406 24.167969 C 8.839844 24.601562 9.523438 24.96875 10.242188 25.265625 C 10.960938 25.5625 11.703125 25.789062 12.46875 25.941406 C 13.234375 26.09375 14.003906 26.167969 14.785156 26.167969 C 15.5625 26.167969 16.335938 26.09375 17.101562 25.941406 C 17.863281 25.789062 18.605469 25.5625 19.328125 25.265625 C 20.046875 24.96875 20.730469 24.601562 21.378906 24.167969 C 22.027344 23.734375 22.625 23.246094 23.175781 22.691406 C 23.726562 22.140625 24.21875 21.542969 24.652344 20.894531 C 25.085938 20.246094 25.453125 19.5625 25.75 18.84375 C 26.046875 18.121094 26.273438 17.378906 26.425781 16.617188 C 26.578125 15.851562 26.652344 15.078125 26.652344 14.300781 C 26.652344 13.519531 26.574219 12.75 26.421875 11.984375 C 26.269531 11.222656 26.046875 10.480469 25.746094 9.761719 C 25.449219 9.039062 25.082031 8.355469 24.648438 7.710938 C 24.214844 7.0625 23.722656 6.460938 23.171875 5.910156 C 22.621094 5.359375 22.023438 4.867188 21.375 4.4375 C 20.726562 4.003906 20.042969 3.636719 19.324219 3.339844 C 18.605469 3.039062 17.863281 2.8125 17.097656 2.660156 C 16.335938 2.507812 15.5625 2.433594 14.785156 2.429688 Z M 19.78125 18.792969 C 19.773438 19.117188 19.703125 19.425781 19.570312 19.722656 C 19.4375 20.015625 19.253906 20.277344 19.019531 20.5 C 18.785156 20.722656 18.519531 20.890625 18.214844 21.007812 C 17.914062 21.125 17.601562 21.179688 17.277344 21.171875 L 12.292969 21.171875 C 11.96875 21.179688 11.65625 21.125 11.351562 21.007812 C 11.050781 20.890625 10.78125 20.722656 10.546875 20.5 C 10.3125 20.277344 10.128906 20.015625 9.996094 19.722656 C 9.867188 19.425781 9.796875 19.117188 9.785156 18.792969 L 9.785156 11.800781 C 9.785156 11.628906 9.847656 11.480469 9.96875 11.359375 C 10.09375 11.238281 10.238281 11.175781 10.410156 11.175781 C 10.585938 11.175781 10.730469 11.238281 10.851562 11.359375 C 10.976562 11.480469 11.035156 11.628906 11.035156 11.800781 L 11.035156 18.792969 C 11.046875 18.949219 11.082031 19.101562 11.152344 19.242188 C 11.222656 19.386719 11.3125 19.511719 11.429688 19.617188 C 11.550781 19.722656 11.683594 19.800781 11.832031 19.855469 C 11.980469 19.90625 12.132812 19.929688 12.292969 19.921875 L 17.277344 19.921875 C 17.433594 19.929688 17.589844 19.90625 17.738281 19.855469 C 17.886719 19.800781 18.019531 19.722656 18.136719 19.617188 C 18.253906 19.511719 18.347656 19.386719 18.417969 19.242188 C 18.484375 19.101562 18.523438 18.949219 18.53125 18.792969 L 18.53125 11.800781 C 18.53125 11.628906 18.59375 11.480469 18.714844 11.359375 C 18.835938 11.238281 18.984375 11.175781 19.15625 11.175781 C 19.328125 11.175781 19.476562 11.238281 19.597656 11.359375 C 19.722656 11.480469 19.78125 11.628906 19.78125 11.800781 Z M 12.910156 17.425781 L 12.910156 13.050781 C 12.910156 12.878906 12.972656 12.730469 13.09375 12.609375 C 13.214844 12.488281 13.363281 12.425781 13.535156 12.425781 C 13.707031 12.425781 13.855469 12.488281 13.976562 12.609375 C 14.097656 12.730469 14.160156 12.878906 14.160156 13.050781 L 14.160156 17.425781 C 14.160156 17.597656 14.097656 17.742188 13.976562 17.867188 C 13.855469 17.988281 13.707031 18.046875 13.535156 18.046875 C 13.363281 18.046875 13.214844 17.988281 13.09375 17.867188 C 12.972656 17.742188 12.910156 17.597656 12.910156 17.425781 Z M 15.410156 17.425781 L 15.410156 13.050781 C 15.410156 12.878906 15.46875 12.730469 15.59375 12.609375 C 15.714844 12.488281 15.859375 12.425781 16.035156 12.425781 C 16.207031 12.425781 16.351562 12.488281 16.476562 12.609375 C 16.597656 12.730469 16.660156 12.878906 16.660156 13.050781 L 16.660156 17.425781 C 16.660156 17.597656 16.597656 17.742188 16.476562 17.867188 C 16.351562 17.988281 16.207031 18.046875 16.035156 18.046875 C 15.859375 18.046875 15.714844 17.988281 15.59375 17.867188 C 15.46875 17.742188 15.410156 17.597656 15.410156 17.425781 Z M 19.78125 10.550781 L 9.785156 10.550781 C 9.613281 10.550781 9.46875 10.492188 9.34375 10.371094 C 9.222656 10.246094 9.164062 10.101562 9.164062 9.925781 C 9.164062 9.753906 9.222656 9.609375 9.34375 9.484375 C 9.46875 9.363281 9.613281 9.304688 9.785156 9.304688 L 12.285156 9.304688 L 12.285156 8.054688 C 12.285156 7.882812 12.347656 7.734375 12.46875 7.613281 C 12.589844 7.488281 12.738281 7.429688 12.910156 7.429688 L 16.660156 7.429688 C 16.832031 7.429688 16.976562 7.488281 17.101562 7.613281 C 17.222656 7.734375 17.28125 7.882812 17.28125 8.054688 L 17.28125 9.304688 L 19.78125 9.304688 C 19.953125 9.304688 20.101562 9.363281 20.222656 9.484375 C 20.34375 9.609375 20.40625 9.753906 20.40625 9.925781 C 20.40625 10.101562 20.34375 10.246094 20.222656 10.371094 C 20.101562 10.492188 19.953125 10.550781 19.78125 10.550781 Z M 19.78125 10.550781 "/>
</g>
</g>
</svg>
